<?xml version="1.0" standalone="no"?><!DOCTYPE svg PUBLIC "-//W3C//DTD SVG 1.1//EN" "http://www.w3.org/Graphics/SVG/1.1/DTD/svg11.dtd"><svg t="1504171087453" class="icon" style="" viewBox="0 0 1024 1024" version="1.1" xmlns="http://www.w3.org/2000/svg" p-id="12387" xmlns:xlink="http://www.w3.org/1999/xlink" width="20" height="20"><defs><style type="text/css"></style></defs><path d="M874.239189 149.880305C674.580869-49.795086 349.675191-49.778015 149.9998 149.880305 53.277498 246.602607 0 375.212883 0 512S53.277498 777.397393 149.9998 874.119695c99.82916 99.846231 230.982963 149.74374 362.119695 149.74374s262.290534-49.91458 362.119694-149.74374c199.675391-199.675391 199.675391-524.563998 0-724.23939z m-700.10149 24.137899C267.326376 80.846598 389.722935 34.260794 512.119495 34.260794c117.070516 0 234.089821 42.744907 325.605574 127.995733L716.967292 283.014303V172.413563a52.372754 52.372754 0 0 0-26.681425-45.97126 52.355683 52.355683 0 0 0-53.175074 0.324343 16.507318 16.507318 0 0 0-2.970294 2.236255L408.090955 339.432801a18.794785 18.794785 0 0 1-8.176842 1.860701h-142.096089a53.05558 53.05558 0 0 0-52.987297 52.987297V612.665622a53.05558 53.05558 0 0 0 52.987297 52.987297h76.510653L162.35895 837.622645A474.615277 474.615277 0 0 1 34.1413 512c0-127.67139 49.726803-247.695129 139.996399-337.981796z m194.349348 457.476345h-110.651952A18.880139 18.880139 0 0 1 238.989097 612.648551V394.263728c0-10.378955 8.449972-18.845997 18.845998-18.845997h142.096089A52.919014 52.919014 0 0 0 426.766245 368.111493a15.790351 15.790351 0 0 0 3.004435-2.236255L655.854366 155.394125a18.607008 18.607008 0 0 1 17.497416 0.631614c2.833728 1.655853 9.474211 6.520988 9.474211 16.370754v144.742039L368.487047 631.494549zM682.825993 365.431401v469.084386c0 9.849765-6.640483 14.7149-9.491282 16.353683-2.697163 1.536358-9.593705 4.47251-17.497416 0.631614l-226.083686-210.481113a15.790351 15.790351 0 0 0-3.004434-2.236255 52.475178 52.475178 0 0 0-12.171374-5.121195L682.825993 365.431401z m167.275297 484.550395c-182.31454 182.297469-476.407695 186.138366-663.58737 11.761677l196.107625-196.107625h17.292568c2.833728 0 5.616244 0.631614 8.176842 1.860701L634.140499 877.94352c0.904744 0.853532 1.911913 1.604641 2.970294 2.236255a52.936085 52.936085 0 0 0 26.869202 7.408662 52.748308 52.748308 0 0 0 26.305872-7.084319A52.406895 52.406895 0 0 0 716.967292 834.532858v-503.242757l144.895676-144.895676c174.393759 187.179675 170.552862 481.27283-11.761678 663.587371z" fill="#b8a070" p-id="12388"></path></svg>