<?xml version="1.0" standalone="no"?><!DOCTYPE svg PUBLIC "-//W3C//DTD SVG 1.1//EN" "http://www.w3.org/Graphics/SVG/1.1/DTD/svg11.dtd"><svg t="1504165917048" class="icon" style="" viewBox="0 0 1024 1024" version="1.1" xmlns="http://www.w3.org/2000/svg" p-id="2353" xmlns:xlink="http://www.w3.org/1999/xlink" width="25" height="25"><defs><style type="text/css"></style></defs><path d="M512 14.9248C237.4656 14.9248 14.912 237.4784 14.912 512c0 274.5344 222.5536 497.0752 497.088 497.0752S1009.088 786.5344 1009.088 512C1009.088 237.4784 786.5344 14.9248 512 14.9248z m0 938.4704c-247.2064 0-447.616-200.4096-447.616-447.616S264.7808 58.1632 512 58.1632c247.2064 0 447.616 200.3968 447.616 447.616 0 247.2064-200.4096 447.616-447.616 447.616z" fill="#b8a070" p-id="2354"></path><path d="M512 83.3152C275.2512 83.3152 83.3152 275.2512 83.3152 512c0 236.7616 191.9488 428.6976 428.6848 428.6976 236.7488 0 428.6848-191.936 428.6848-428.6976C940.6848 275.2512 748.7488 83.3152 512 83.3152z m-64.576 550.4384a22.1184 22.1184 0 1 1-44.2624 0V390.2464a22.144 22.144 0 1 1 44.2624 0v243.5072z m173.4272 0a22.144 22.144 0 0 1-44.2624 0V390.2464a22.144 22.144 0 1 1 44.2624 0v243.5072z" fill="#b8a070" p-id="2355"></path></svg>