<?xml version="1.0" standalone="no"?><!DOCTYPE svg PUBLIC "-//W3C//DTD SVG 1.1//EN" "http://www.w3.org/Graphics/SVG/1.1/DTD/svg11.dtd"><svg t="1504170708466" class="icon" style="" viewBox="0 0 1024 1024" version="1.1" xmlns="http://www.w3.org/2000/svg" p-id="3147" xmlns:xlink="http://www.w3.org/1999/xlink" width="20" height="20"><defs><style type="text/css"></style></defs><path d="M628.669935 603.301161c-7.663484-6.722065-18.299871-4.294194-23.684129 5.384258l-3.022451 5.417291c-5.384258 9.711484-3.402323 22.940903 4.294193 29.629935l82.910968 71.432258c7.729548 6.722065 18.382452 4.294194 23.717161-5.334709l2.98942-5.450323c5.384258-9.645419 3.468387-22.957419-4.261162-29.563871l-82.944-71.514839z m-23.651096-208.103226c5.351226 9.628903 15.954581 12.023742 23.700645 5.367742l82.927484-71.46529c7.713032-6.656 9.612387-19.918452 4.294193-29.563871l-2.972903-5.483355c-5.41729-9.645419-15.987613-12.106323-23.783226-5.41729l-82.894451 71.514839c-7.696516 6.689032-9.711484 19.868903-4.294194 29.580387l2.989419 5.450322h0.033033z m140.899096 82.002581H644.954839c-11.56129 0.148645-20.810323 9.628903-20.645162 21.173678v6.705548c0 11.726452 9.216 21.305806 20.645162 21.305806h100.963096c11.56129-0.165161 20.810323-9.645419 20.661678-21.190193V498.456774a20.925935 20.925935 0 0 0-20.546065-21.305806h-0.115613v0.033032zM511.834839 294.69729c-31.380645 25.467871-97.147871 61.274839-144.367484 95.628387h-0.033032c-0.561548 0.330323-1.123097 2.246194-1.651613 2.543484-5.598968 3.253677-8.092903 12.106323-38.4 12.106323h-59.259871c-15.178323 0-24.609032 7.283613-24.609033 23.684129v145.837419c0 16.317935 8.654452 24.460387 24.609033 24.460387h59.47458c30.191484 0.082581 32.652387 8.902194 38.185291 12.106323 0.528516 0.313806 1.090065 2.180129 1.602064 2.56h0.082581c45.766194 34.436129 111.91329 73.00129 144.301419 97.395613 9.777548 7.399226 41.455484 30.587871 41.455484-14.947097v-388.789677c0-45.584516-31.859613-20.331355-41.389419-12.601807z m-7.432258 676.748387c-257.948903 0-467.026581-209.094194-467.026581-467.043096 0-257.965419 209.077677-467.043097 467.026581-467.043097 257.965419 0 467.043097 209.094194 467.043096 467.043097 0 257.948903-209.094194 467.043097-467.043096 467.043096zM1008.805161 504.402581C1008.805161 225.825032 782.980129 0 504.402581 0 225.825032 0 0 225.825032 0 504.402581c0 278.577548 225.825032 504.402581 504.402581 504.40258 278.577548 0 504.402581-225.825032 504.40258-504.40258z" fill="#b8a070" p-id="3148"></path></svg>